<?xml version="1.0" standalone="no"?>
<!DOCTYPE svg PUBLIC "-//W3C//DTD SVG 20010904//EN"
 "http://www.w3.org/TR/2001/REC-SVG-20010904/DTD/svg10.dtd">
<svg version="1.0" xmlns="http://www.w3.org/2000/svg"
 width="800.000000pt" height="800.000000pt" viewBox="0 0 800.000000 800.000000"
 preserveAspectRatio="xMidYMid meet">
<metadata>
Created by potrace 1.11, written by Peter Selinger 2001-2013
</metadata>
<g transform="translate(0.000000,800.000000) scale(0.100000,-0.100000)"
fill="#000000" stroke="none">
<path d="M3935 7971 c-27 -15 -84 -45 -125 -68 -41 -22 -111 -59 -155 -83 -44
-23 -107 -57 -140 -75 -33 -18 -142 -76 -243 -130 -100 -53 -185 -102 -189
-109 -8 -11 -13 -2355 -5 -2369 2 -5 11 -2 20 6 10 8 41 28 70 43 29 16 61 34
70 39 9 6 69 39 132 74 63 35 127 72 142 82 14 11 33 19 41 19 9 0 17 4 19 8
3 7 216 132 287 168 8 4 73 41 145 82 72 41 156 88 186 105 30 16 60 33 65 37
6 4 42 24 80 45 39 21 77 43 85 49 8 6 24 16 35 22 64 33 411 229 415 234 3 3
19 12 35 20 17 8 38 21 48 29 9 8 17 10 17 5 0 -5 4 -4 8 1 7 10 16 15 101 63
25 13 58 34 74 44 15 11 27 16 27 13 0 -3 13 3 29 14 16 12 33 21 38 21 5 0
18 8 29 18 11 9 55 35 97 57 42 22 78 44 79 49 3 10 -51 44 -114 73 -21 10
-38 21 -38 25 0 5 -6 8 -14 8 -7 0 -19 7 -26 15 -7 8 -16 12 -21 9 -5 -3 -9
-2 -9 3 0 4 -12 14 -27 20 -16 7 -44 23 -63 35 -19 12 -37 22 -40 23 -3 0 -36
19 -75 41 -38 23 -92 54 -120 69 -27 15 -54 30 -60 35 -5 4 -35 21 -65 37 -64
35 -119 66 -177 100 -49 28 -34 33 -196 -68 -60 -38 -113 -69 -118 -69 -5 0
-9 -4 -9 -9 0 -5 -8 -11 -17 -15 -10 -3 -31 -15 -48 -26 -16 -11 -38 -23 -47
-26 -10 -4 -18 -10 -18 -14 0 -5 -8 -11 -18 -14 -10 -3 -42 -22 -72 -41 -30
-19 -58 -35 -62 -35 -4 0 -9 301 -10 669 l-3 669 -50 -27z"/>
<path d="M6530 6544 c-19 -12 -41 -23 -47 -23 -7 -1 -13 -5 -13 -11 0 -5 -4
-10 -8 -10 -5 0 -109 -58 -232 -130 -122 -71 -224 -130 -226 -130 -2 0 -23
-13 -47 -30 -25 -16 -47 -30 -50 -30 -4 0 -234 -132 -277 -160 -8 -5 -37 -22
-65 -38 -109 -62 -133 -76 -215 -125 -47 -27 -110 -63 -140 -80 -30 -16 -62
-36 -71 -43 -8 -8 -19 -14 -22 -14 -4 0 -36 -18 -72 -40 -36 -22 -70 -40 -75
-40 -6 0 -10 -4 -10 -10 0 -5 -4 -10 -9 -10 -5 0 -55 -27 -111 -60 -56 -33
-105 -60 -109 -60 -4 0 -18 -9 -31 -20 -13 -11 -29 -20 -37 -20 -7 0 -13 -4
-13 -10 0 -5 -4 -10 -9 -10 -12 0 -121 -63 -121 -70 1 -3 79 -50 176 -105 96
-55 196 -112 222 -128 26 -15 59 -32 75 -38 15 -6 27 -15 27 -20 0 -5 4 -9 9
-9 5 0 86 -45 181 -100 94 -55 173 -100 175 -100 2 0 33 -18 69 -40 36 -22 70
-40 76 -40 5 0 10 -4 10 -10 0 -5 4 -10 9 -10 9 0 97 -48 158 -86 13 -8 24
-14 25 -13 2 1 36 -19 76 -44 40 -26 75 -47 78 -47 4 0 43 -22 88 -49 85 -51
320 -187 396 -229 25 -14 62 -36 82 -49 21 -12 40 -23 44 -23 3 0 18 -8 32
-18 15 -11 52 -32 82 -49 30 -17 106 -60 168 -96 87 -51 112 -62 113 -49 2 32
-8 993 -10 1018 -1 8 -69 47 -99 56 -4 1 -36 18 -72 38 -36 19 -145 75 -242
124 l-176 90 70 43 c38 24 71 43 73 43 2 0 39 21 82 46 43 26 92 55 108 64 17
10 140 81 274 159 134 79 258 151 276 161 18 10 63 37 100 59 37 23 69 41 71
41 2 0 27 14 54 31 l51 31 -34 23 c-18 13 -52 34 -74 47 -22 12 -131 79 -242
148 -111 69 -221 136 -244 149 -23 13 -43 28 -45 32 -2 5 -8 9 -12 9 -5 0 -51
26 -102 58 -136 86 -128 83 -168 56z"/>
<path d="M2525 6480 c-27 -17 -58 -33 -67 -36 -10 -4 -18 -10 -18 -15 0 -5 -4
-9 -9 -9 -4 0 -93 -50 -197 -111 -104 -61 -209 -123 -234 -137 -147 -83 -316
-186 -322 -195 -3 -6 -2 -21 3 -34 5 -15 5 -23 -2 -23 -6 0 -7 -5 -3 -12 4 -6
8 -63 10 -127 1 -64 5 -194 8 -289 l6 -173 -43 24 c-136 77 -310 178 -322 187
-5 4 -32 20 -60 35 -27 15 -95 54 -151 86 -55 32 -106 59 -112 59 -7 0 -12 3
-12 8 0 4 -21 18 -48 32 -26 13 -49 27 -52 30 -5 5 -20 13 -112 65 -20 11 -81
45 -135 77 -100 58 -116 63 -120 40 -1 -13 -10 -267 -18 -537 -2 -66 -6 -199
-10 -296 l-6 -176 198 -114 c109 -62 274 -157 366 -211 93 -54 171 -98 174
-98 4 0 14 -6 22 -14 9 -7 43 -28 75 -45 33 -17 64 -35 70 -40 6 -4 31 -20 56
-33 25 -14 68 -38 95 -53 28 -15 58 -34 68 -43 9 -8 17 -11 17 -7 0 4 8 1 18
-7 9 -8 60 -39 112 -68 52 -29 103 -60 114 -69 10 -9 20 -15 22 -13 2 1 14 -4
27 -11 12 -8 56 -33 97 -57 41 -24 108 -63 148 -87 40 -24 75 -43 77 -43 3 0
29 -16 59 -35 30 -19 58 -35 61 -35 3 0 22 -11 43 -23 58 -37 134 -78 137 -75
4 4 8 51 6 58 -5 13 -5 130 -1 130 3 0 6 278 7 618 1 339 3 913 6 1275 2 361
4 657 3 657 0 -1 -23 -14 -51 -30z"/>
<path d="M3908 5255 c-2 -2 -28 -5 -58 -8 -52 -6 -71 -9 -145 -23 -150 -30
-373 -139 -501 -246 -54 -44 -151 -143 -190 -193 -21 -27 -42 -51 -46 -53 -5
-2 -8 -8 -8 -14 0 -5 -13 -28 -28 -51 -38 -57 -96 -180 -117 -247 -9 -30 -19
-62 -22 -70 -10 -25 -32 -139 -39 -195 -6 -48 -5 -257 1 -290 3 -16 10 -55 16
-85 47 -249 193 -509 377 -673 177 -158 350 -247 587 -303 82 -19 345 -28 420
-13 28 5 66 12 85 15 71 12 218 65 315 114 55 28 102 55 105 59 3 4 21 17 41
29 35 21 46 30 125 103 33 31 118 122 142 154 107 139 205 354 228 500 3 22 8
43 9 46 14 22 20 202 11 324 -8 106 -58 315 -78 323 -5 2 -6 7 -4 11 7 10 -76
172 -125 244 -116 170 -288 320 -472 411 -96 47 -212 89 -284 102 -21 4 -47 9
-58 11 -11 2 -30 6 -43 9 -25 5 -240 13 -244 9z m237 -120 c28 -3 58 -8 67
-11 9 -3 26 -7 37 -9 43 -10 57 -14 113 -33 375 -132 667 -475 733 -862 26
-148 22 -331 -9 -447 -8 -29 -12 -53 -9 -53 3 0 0 -7 -7 -15 -7 -8 -9 -15 -5
-15 4 0 3 -6 -2 -12 -6 -7 -13 -26 -17 -43 -6 -25 -27 -69 -101 -216 -5 -10
-13 -19 -17 -19 -5 0 -8 -7 -8 -15 0 -8 -4 -15 -8 -15 -4 0 -16 -13 -25 -30
-28 -47 -155 -172 -237 -233 -75 -55 -269 -157 -302 -157 -9 0 -20 -5 -23 -10
-4 -6 -11 -8 -16 -4 -5 3 -16 1 -24 -6 -7 -6 -19 -10 -27 -9 -7 1 -20 0 -28
-4 -60 -23 -361 -32 -440 -13 -14 3 -37 8 -51 11 -107 20 -299 105 -402 178
-67 48 -203 176 -242 229 -71 95 -165 265 -165 298 0 9 -4 20 -9 26 -7 8 -25
67 -36 122 -3 12 -7 32 -10 45 -30 137 -22 339 21 497 8 30 17 62 19 70 18 69
98 222 160 305 53 70 171 195 185 195 6 0 10 3 10 8 0 22 291 188 344 196 6 1
16 4 21 8 6 3 37 12 70 19 33 7 67 14 75 16 83 19 248 23 365 8z"/>
<path d="M3937 4944 c-1 -1 -33 -5 -72 -8 -96 -8 -108 -10 -210 -40 -242 -71
-420 -218 -521 -431 -16 -33 -33 -63 -37 -66 -5 -3 -8 -8 -7 -10 2 -5 -4 -25
-19 -69 -15 -41 -14 -39 -31 -115 -13 -63 -18 -280 -7 -352 24 -157 73 -290
151 -413 35 -54 181 -199 222 -220 16 -8 31 -17 34 -21 21 -22 191 -95 250
-105 14 -3 42 -10 64 -15 133 -35 490 -24 558 17 9 6 -19 69 -29 67 -4 0 -26
-4 -48 -8 -22 -3 -62 -10 -90 -15 -113 -18 -396 6 -450 38 -5 4 -15 7 -20 8
-26 4 -116 50 -179 93 -192 128 -304 310 -344 561 -9 55 -8 292 1 340 37 200
105 337 223 453 56 55 180 146 207 151 6 1 30 10 52 20 22 10 51 20 65 22 14
3 32 7 40 10 43 16 167 31 246 28 83 -2 213 -13 235 -20 10 -3 20 5 27 21 25
55 20 58 -118 70 -73 7 -189 12 -193 9z"/>
<path d="M3826 4031 c-2 -3 -3 -19 -2 -35 1 -30 7 -33 69 -39 15 -2 27 1 27 6
0 4 5 5 12 1 10 -7 167 -10 193 -4 6 1 12 2 15 1 20 -8 71 -7 76 0 3 5 10 7
15 4 5 -3 47 -6 94 -7 55 0 85 -4 86 -12 0 -6 0 -93 0 -194 0 -178 1 -183 21
-191 12 -4 35 -5 52 -1 l31 6 1 224 c0 124 -2 230 -4 236 -4 13 -679 17 -686
5z"/>
<path d="M5449 4228 c-1 -2 -3 -178 -5 -393 -3 -214 -5 -394 -5 -400 0 -5 1
-29 3 -53 2 -24 1 -45 -3 -48 -4 -2 -3 -20 1 -39 4 -19 5 -35 1 -35 -8 0 -6
-114 2 -127 4 -6 4 -13 0 -17 -6 -5 -9 -313 -13 -1270 0 -186 1 -340 3 -342 4
-4 16 3 191 106 70 41 150 88 179 104 29 16 55 33 58 38 3 6 10 10 15 10 5 1
18 6 29 13 11 7 39 23 62 36 34 20 207 121 298 176 11 7 29 16 41 22 24 11 23
-24 9 376 -4 105 -8 213 -9 242 l-3 51 26 -11 c14 -7 81 -45 149 -84 68 -40
126 -73 129 -73 3 0 17 -8 31 -18 15 -11 52 -32 82 -49 30 -17 79 -44 108 -62
29 -17 57 -31 62 -31 6 0 10 -4 10 -9 0 -5 8 -11 18 -14 17 -6 63 -32 155 -88
26 -16 49 -29 52 -29 3 0 29 -16 60 -35 30 -20 63 -39 72 -42 9 -4 60 -33 112
-64 52 -32 97 -57 99 -54 2 2 5 54 7 117 2 62 6 181 9 263 3 83 8 233 11 335
3 102 7 213 8 248 3 71 1 76 -33 92 -14 6 -34 16 -45 23 -31 19 -295 172 -337
196 -62 34 -96 54 -228 131 -68 40 -139 81 -157 91 -18 11 -48 27 -65 38 -285
164 -360 207 -398 229 -25 13 -49 28 -55 32 -5 4 -30 19 -55 32 -25 14 -101
58 -170 98 -69 40 -138 80 -155 90 -34 19 -133 77 -155 90 -174 103 -198 115
-201 108z"/>
<path d="M1119 3983 c-6 -28 -3 -523 3 -523 4 0 4 -11 -1 -23 -5 -13 -6 -30
-1 -37 4 -7 4 -25 0 -41 -5 -15 -6 -30 -3 -33 3 -3 6 -86 7 -185 1 -99 4 -182
6 -184 3 -2 122 -64 265 -137 143 -73 273 -140 289 -148 l29 -15 -24 -18 c-13
-10 -28 -19 -32 -19 -4 0 -33 -16 -63 -35 -30 -19 -56 -35 -58 -35 -2 0 -118
-67 -258 -148 -139 -82 -352 -206 -473 -277 -121 -70 -228 -133 -237 -140 -18
-12 -12 -17 93 -72 15 -7 32 -20 39 -28 7 -8 16 -15 20 -15 6 0 346 -206 376
-227 20 -15 49 -33 89 -54 22 -12 42 -25 45 -28 10 -12 197 -121 208 -121 6 0
33 13 59 29 27 15 91 53 143 83 383 224 706 412 733 427 42 24 325 189 672
391 298 175 372 217 411 238 13 7 24 17 24 21 0 5 -78 53 -172 107 -95 55
-182 104 -193 111 -11 7 -27 16 -35 20 -65 34 -228 130 -238 140 -7 7 -17 13
-22 13 -5 0 -43 20 -83 45 -41 25 -78 45 -82 45 -4 0 -19 8 -33 19 -15 10 -43
27 -62 38 -19 11 -170 98 -335 193 -165 95 -316 182 -335 193 -36 20 -182 105
-212 122 -9 6 -40 24 -70 41 -29 17 -71 41 -93 54 -22 13 -58 33 -80 45 -22
12 -75 43 -118 69 -43 25 -80 46 -82 46 -3 0 -26 14 -52 30 -48 31 -62 36 -64
23z"/>
<path d="M4895 2851 c-6 -5 -41 -26 -80 -47 -38 -21 -92 -50 -118 -66 -26 -15
-52 -28 -57 -28 -6 0 -10 -4 -10 -10 0 -5 -5 -10 -11 -10 -9 0 -203 -105 -329
-179 -19 -11 -51 -28 -70 -38 -19 -9 -37 -19 -40 -23 -3 -3 -23 -14 -45 -25
-22 -11 -56 -29 -75 -41 -19 -11 -66 -38 -105 -59 -38 -21 -104 -57 -146 -81
-42 -24 -81 -44 -87 -44 -6 0 -12 -4 -14 -8 -1 -4 -57 -38 -123 -74 -66 -36
-147 -80 -180 -98 -33 -18 -64 -36 -70 -40 -5 -4 -50 -29 -100 -55 -49 -26
-97 -54 -106 -61 -8 -8 -18 -14 -21 -14 -7 0 -483 -263 -508 -280 -8 -6 -23
-13 -33 -17 -20 -6 -18 -22 4 -35 8 -4 70 -39 139 -78 69 -39 132 -75 140 -80
8 -6 26 -16 40 -22 14 -7 53 -29 88 -50 34 -21 67 -38 72 -38 6 0 10 -4 10
-10 0 -5 5 -10 11 -10 6 0 49 -23 96 -50 47 -28 88 -50 93 -50 4 0 13 -7 20
-15 7 -9 15 -13 18 -11 3 3 17 -3 32 -14 16 -11 33 -20 38 -20 6 0 12 -3 14
-7 2 -5 17 -16 34 -25 30 -17 31 -17 89 18 32 19 79 46 104 60 25 13 69 38 96
55 28 16 59 34 70 39 11 6 29 16 40 22 66 43 126 78 131 78 3 0 19 9 35 21 21
14 29 17 30 7 1 -7 2 -308 3 -668 0 -360 4 -656 8 -657 9 -3 41 8 48 16 3 4
52 31 110 60 58 30 107 58 108 63 2 4 11 8 21 8 9 0 21 4 26 9 10 9 49 31 210
116 44 23 105 56 135 72 30 16 89 47 130 68 41 22 77 42 80 45 3 4 13 9 23 13
16 6 17 72 17 1192 0 1219 0 1210 -35 1176z"/>
</g>
</svg>
