<svg class="logo__icon" viewbox="0 0 87 86" fill="none"
    xmlns="http://www.w3.org/2000/svg">
    <g id="GlennLawLogoIcon footer">
        <g id="inner__logo footer" width="25" height="25">
            <path id="Vector_2 footer" d="M46.0283 35.6473V35.5832C45.2244 35.4425 44.4104 35.368 43.5943 35.3601C42.5132 35.3514 41.4393 35.5355 40.4229 35.9038C39.4844 36.2666 38.6332 36.8233 37.9247 37.5377C37.1802 38.2588 36.6202 39.1486 36.2923 40.132C35.9205 41.1597 35.7359 42.2455 35.7472 43.3383C35.7377 44.4901 35.922 45.6352 36.2923 46.7259C36.657 47.7082 37.2241 48.6031 37.9568 49.3523C38.7273 50.0653 39.616 50.639 40.5832 51.0474C41.6491 51.4327 42.776 51.6216 43.9094 51.605C44.4698 51.6036 45.0292 51.5571 45.5823 51.4656C45.8995 51.4253 46.2114 51.3501 46.5121 51.2412L46.8007 51.9145C46.3948 52.0585 45.974 52.1554 45.546 52.2031C44.9626 52.2824 44.3739 52.3146 43.7853 52.2993C43.2178 52.3036 42.6507 52.2715 42.0874 52.2031C41.4043 52.0748 40.9024 51.9679 40.5818 51.8825C40.128 51.7559 39.6881 51.584 39.2686 51.3694C38.8465 51.1524 38.4398 50.9065 38.0516 50.6334C37.5079 50.2338 37.0133 49.7716 36.5781 49.2561C36.1452 48.7461 35.7897 48.1755 35.5228 47.5623C35.2366 46.9379 35.0219 46.2832 34.8829 45.6106C34.7261 44.8843 34.6508 44.1427 34.6585 43.3996C34.6585 43.08 34.6798 42.5995 34.7226 41.9582C34.8083 41.492 34.9261 41.0323 35.0753 40.5823C35.2016 40.1136 35.3842 39.6619 35.619 39.237C35.8258 38.7887 36.0727 38.36 36.3564 37.9559C36.7148 37.4456 37.1364 36.9828 37.6111 36.5785C38.1585 36.155 38.7486 35.7897 39.3717 35.4884C40.0257 35.2195 40.7008 35.0054 41.3903 34.8485C42.5174 34.6192 43.6732 34.5651 44.8169 34.6882C45.3299 34.7314 45.7342 34.7733 46.0339 34.8165C46.1173 34.8402 46.2037 34.851 46.2904 34.8485L46.0283 35.6473ZM47.6622 43.8471H42.1473V43.1111H48.6227V47.5999H47.6622V43.8471Z" fill="#ffffff" />
            <path id="Vector_3 footer" d="M43.6599 54.3861C49.7814 54.3861 54.744 49.4236 54.744 43.302C54.744 37.1805 49.7814 32.2179 43.6599 32.2179C37.5383 32.2179 32.5757 37.1805 32.5757 43.302C32.5757 49.4236 37.5383 54.3861 43.6599 54.3861Z" stroke="#ffffff" stroke-width="1.02184" stroke-miterlimit="10" />
        </g>
        <g id="outter__logo footer" width="25" height="25">
            <path id="Vector_4 footer" d="M35.1464 10.592V32.8592L57.5293 20.1761L49.0353 15.3555L43.7198 18.6259V6L35.1464 10.592Z" fill="#ffffff" />
            <path id="Vector_5 footer" d="M52.5051 76.3369V54.0683L30.1222 66.5381L38.6162 71.3587L43.9317 68.3016V80.9289L52.5051 76.3369Z" fill="#ffffff" />
            <path id="Vector_6 footer" d="M67.8676 19.4233L48.6241 30.6273L70.9024 43.4624L70.7951 33.697L65.237 30.8755L76.1482 24.5214L67.8676 19.4233Z" fill="#ffffff" />
            <path id="Vector_7 footer" d="M19.7853 67.5056L39.0288 56.3002L16.7658 43.4624L16.8731 53.2291L22.4145 56.0534L11.5033 62.4061L19.7853 67.5056Z" fill="#ffffff" />
            <path id="Vector_8 footer" d="M11.0195 34.5362L30.302 45.6747L30.4805 19.9489L22.0562 24.8922L22.2653 31.132L11.3318 24.8169L11.0195 34.5362Z" fill="#ffffff" />
            <path id="Vector_9 footer" d="M76.632 52.3913L57.3494 41.2528L57.1724 66.9312L65.5953 61.9879L65.3862 55.7955L76.3197 62.112L76.632 52.3913Z" fill="#ffffff" />
        </g>
    </g>
</svg>