<svg class="background-logo__name" viewbox="0 0 222 52" fill="none"
    xmlns="http://www.w3.org/2000/svg">
    <g>
        <path id="W" d="M203.015 23.9551L200.136 50.7872H189.274L183.663 0.428925H191.358L195.602 40.1386L199.418 0.428925H207.036L210.994 40.4263L215.095 0.428925H222L216.389 50.7857H205.886L203.015 23.9551Z" fill="transparent" stroke="#BFE99E"></path>
        <path id="A" d="M182.872 50.7872H174.886L173.52 41.6519H163.808L162.442 50.7872H155.176L163.232 0.428925H174.814L182.872 50.7872ZM164.823 34.8174H172.447L168.636 9.35053L164.823 34.8174Z" fill="transparent" stroke="#BFE99E"></path>
        <path id="L" d="M132.876 0.428925H140.788V43.5917H153.803V50.7857H132.876V0.428925Z" fill="transparent" stroke="#BFE99E"></path>
        <path id="N" d="M79.6429 50.7872H76.6217V0.428925H80.9386L96.0446 42.9446V0.428925H99.0658V50.7857H95.3975L79.6429 5.89816V50.7872Z" fill="#BFE99E"></path>
        <path id="N2" d="M107.771 50.7872H104.748V0.428925H109.065L124.171 42.9446V0.428925H127.186V50.7857H123.516L107.771 5.89816V50.7872Z" fill="#BFE99E"></path>
        <path id="E" d="M68.4219 23.7384V26.7588H54.6812V47.766H71.2182V50.7872H51.3723V0.428925H71.2182V3.45163H54.6812V23.7369L68.4219 23.7384Z" fill="#BFE99E"></path>
        <path id="L2" d="M27.2827 50.7872V0.428925H30.5819V47.7645H46.4082V50.7857L27.2827 50.7872Z" fill="#BFE99E">
        </path>
        <path id="G" d="M21.7327 12.7327V16.472H18.5681V12.516C18.5681 7.1192 16.4824 3.01896 10.9445 3.01896C5.40572 3.01896 3.31786 7.1192 3.31786 12.516V38.7002C3.31786 44.0947 5.40348 48.1239 10.9445 48.1239C16.4847 48.1239 18.5681 44.0947 18.5681 38.7002V27.8364H11.8793V24.816H21.7238V38.4887C21.7238 45.7558 18.5591 51.2229 10.8623 51.2229C3.16543 51.2229 0 45.7536 0 38.4887V12.7327C0 5.46775 3.16543 0 10.8623 0C18.5591 0 21.7327 5.46775 21.7327 12.7327Z" fill="#BFE99E"></path>
    </g>
</svg>